<?xml version="1.0" encoding="UTF-8" standalone="no"?>
<!-- Created with Inkscape (http://www.inkscape.org/) -->

<svg
   width="1920"
   height="466.53189"
   viewBox="0 0 1920 466.53189"
   version="1.1"
   id="svg1"
   inkscape:version="1.3 (0e150ed6c4, 2023-07-21)"
   sodipodi:docname="flowlab_logo.svg"
   xmlns:inkscape="http://www.inkscape.org/namespaces/inkscape"
   xmlns:sodipodi="http://sodipodi.sourceforge.net/DTD/sodipodi-0.dtd"
   xmlns="http://www.w3.org/2000/svg"
   xmlns:svg="http://www.w3.org/2000/svg">
  <sodipodi:namedview
     id="namedview1"
     pagecolor="#141414"
     bordercolor="#eeeeee"
     borderopacity="1"
     inkscape:showpageshadow="0"
     inkscape:pageopacity="0"
     inkscape:pagecheckerboard="false"
     inkscape:deskcolor="#505050"
     inkscape:document-units="px"
     inkscape:zoom="0.78229168"
     inkscape:cx="1080.1598"
     inkscape:cy="230.73235"
     inkscape:window-width="1900"
     inkscape:window-height="1028"
     inkscape:window-x="0"
     inkscape:window-y="0"
     inkscape:window-maximized="1"
     inkscape:current-layer="layer1" />
  <defs
     id="defs1">
    <inkscape:path-effect
       effect="envelope"
       id="path-effect6"
       is_visible="true"
       lpeversion="1"
       yy="true"
       xx="true"
       bendpath1="M 418.21786,406.27559 H 582.33928"
       bendpath2="m 554.52255,406.27559 -6.8551,103.1504"
       bendpath3="M 438.16526,509.42599 H 547.66745"
       bendpath4="M 458.90798,406.27559 447.20329,509.34662"
       bendpath1-nodetypes="cc"
       bendpath2-nodetypes="cc"
       bendpath4-nodetypes="cc" />
    <inkscape:path-effect
       effect="lattice2"
       gridpoint0="436.90239,406.27559"
       gridpoint1="548.85549,406.27559"
       gridpoint2="449.96694,509.42599"
       gridpoint3="535.79094,509.42599"
       gridpoint4="471.42294,402.86599"
       gridpoint5="514.33494,402.86599"
       gridpoint6="471.42294,509.42599"
       gridpoint7="514.33494,509.42599"
       gridpoint8x9="492.87894,402.86599"
       gridpoint10x11="492.87894,509.42599"
       gridpoint12="449.96694,429.50599"
       gridpoint13="535.79094,429.50599"
       gridpoint14="449.96694,482.78599"
       gridpoint15="535.79094,482.78599"
       gridpoint16="471.42294,429.50599"
       gridpoint17="514.33494,429.50599"
       gridpoint18="471.42294,482.78599"
       gridpoint19="514.33494,482.78599"
       gridpoint20x21="492.87894,429.50599"
       gridpoint22x23="492.87894,482.78599"
       gridpoint24x26="455.22795,453.97563"
       gridpoint25x27="530.52993,453.97563"
       gridpoint28x30="471.42294,456.14599"
       gridpoint29x31="514.33494,456.14599"
       gridpoint32x33x34x35="492.87894,456.14599"
       id="path-effect5"
       is_visible="false"
       lpeversion="1"
       horizontal_mirror="false"
       vertical_mirror="true"
       perimetral="true"
       live_update="true" />
  </defs>
  <g
     inkscape:label="Layer 1"
     inkscape:groupmode="layer"
     id="layer1"
     transform="translate(-8.43946e-6,-306.73407)">
    <text
       xml:space="preserve"
       style="font-style:normal;font-variant:normal;font-weight:normal;font-stretch:normal;font-size:615.206px;font-family:Sans;-inkscape-font-specification:'Sans, ';font-variant-ligatures:normal;font-variant-caps:normal;font-variant-numeric:normal;font-variant-east-asian:normal;letter-spacing:0px;fill:#2ad4ff;stroke-width:3.2042"
       x="1319.6617"
       y="756.85956"
       id="text1"><tspan
         sodipodi:role="line"
         id="tspan1"
         x="1319.6617"
         y="756.85956"
         style="font-style:normal;font-variant:normal;font-weight:normal;font-stretch:normal;font-size:615.206px;font-family:Sans;-inkscape-font-specification:'Sans, ';font-variant-ligatures:normal;font-variant-caps:normal;font-variant-numeric:normal;font-variant-east-asian:normal;letter-spacing:0px;fill:#2ad4ff;stroke-width:3.2042">a</tspan></text>
    <path
       d="m 27.684265,772.23972 c -7.587537,0 -14.047197,-2.76842 -19.3789795,-8.30527 C 2.7684341,758.60266 8.43946e-6,752.143 8.43946e-6,744.55547 V 335.34114 c 0,-7.79261 2.87095996054,-14.55987 8.61287996054,-20.30179 5.5368516,-5.53685 12.3041146,-8.30528 20.3017886,-8.30528 H 233.77818 c 7.38247,0 13.94466,2.66589 19.68658,7.99767 5.33178,5.74192 7.99767,12.30412 7.99767,19.68659 0,7.58753 -2.66589,14.04719 -7.99767,19.37898 -5.53685,5.53685 -12.09905,8.30527 -19.68658,8.30527 H 68.595445 c -3.691234,0 -6.767263,1.23042 -9.228086,3.69124 -2.665891,2.66589 -3.998837,5.84445 -3.998837,9.53569 v 105.81538 c 0,3.69123 1.332946,6.76726 3.998837,9.22808 2.460823,2.6659 5.536852,3.99884 9.228086,3.99884 H 210.09276 c 7.38247,0 13.94466,2.66589 19.68658,7.99768 5.33178,5.74192 7.99767,12.30411 7.99767,19.68658 0,7.58754 -2.66589,14.0472 -7.99767,19.37898 -5.53685,5.53685 -12.09904,8.30528 -19.68658,8.30528 H 68.595445 c -3.691234,0 -6.767263,1.23041 -9.228086,3.69123 -2.665891,2.46082 -3.998837,5.53685 -3.998837,9.22809 v 181.89582 c 0,7.58753 -2.665891,14.04719 -7.997674,19.37898 -5.536851,5.53685 -12.099046,8.30527 -19.686583,8.30527 z"
       id="text2"
       style="font-size:192px;font-family:'Maple Mono';-inkscape-font-specification:'Maple Mono, Normal';fill:#5a2ca0;stroke-width:3.2042"
       aria-label="F"
       sodipodi:nodetypes="scssssscssssssscsscsssscssss" />
    <path
       d="m 408.28861,773.26593 c -69.97977,0 -105.16903,-43.06446 -105.56776,-129.19342 v -249.4151 c 0,-8.17429 -3.18997,-15.75045 -9.56987,-22.72848 -6.18055,-6.77867 -13.37522,-9.82635 -22.347,-9.82635 h -39.77484 c -7.3768,0 -14.03852,-2.83382 -19.2222,-7.81814 -5.38305,-5.18368 -8.07458,-11.66327 -8.07458,-19.4388 0,-8.77242 2.69153,-15.65077 8.07458,-20.63509 5.18368,-4.98429 11.46391,-7.47645 18.84071,-7.47645 h 64.89577 c 15.15233,0 29.20811,6.47959 42.16732,19.4388 12.56048,12.75985 18.84071,26.91532 18.84071,42.46637 v 264.66711 c 0,57.41929 19.13975,86.12896 57.41929,86.12896 10.56677,0 20.83446,-2.89089 30.80307,-8.67271 3.38933,-1.99374 6.5793,-2.9906 9.56987,-2.9906 2.99061,0 6.57931,0.79749 10.76614,2.39248 3.78809,1.39562 7.07774,4.18682 9.86895,8.37365 2.79121,3.98746 4.18683,8.97178 4.18683,14.95296 0,6.77864 -1.99372,12.75981 -5.98118,17.94353 -11.56362,14.35483 -33.19557,21.63192 -64.89581,21.83128 z"
       id="text3"
       style="font-size:186.667px;font-family:'Maple Mono';-inkscape-font-specification:'Maple Mono, Normal';fill:#5a2ca0;stroke-width:3.2042"
       aria-label="l"
       sodipodi:nodetypes="ccscsscscsscssscsccscc" />
    <text
       xml:space="preserve"
       style="font-style:normal;font-variant:normal;font-weight:normal;font-stretch:normal;font-size:615.206px;font-family:'Maple Mono';-inkscape-font-specification:'Maple Mono, Normal';font-variant-ligatures:normal;font-variant-caps:normal;font-variant-numeric:normal;font-variant-east-asian:normal;fill:#5a2ca0;stroke-width:3.2042"
       x="373.98834"
       y="764.0379"
       id="text4"><tspan
         sodipodi:role="line"
         id="tspan4"
         x="373.98834"
         y="764.0379"
         style="font-style:normal;font-variant:normal;font-weight:normal;font-stretch:normal;font-size:615.206px;font-family:'Maple Mono';-inkscape-font-specification:'Maple Mono, Normal';font-variant-ligatures:normal;font-variant-caps:normal;font-variant-numeric:normal;font-variant-east-asian:normal;fill:#5a2ca0;stroke-width:3.2042">o</tspan></text>
    <path
       id="text5"
       style="font-size:192px;font-family:'Maple Mono';-inkscape-font-specification:'Maple Mono, Normal';fill:#5a2ca0;stroke-width:3.2042"
       d="M 1102.7949 432.70087 L 1022.3008 434.91962 A 13.862132 13.862132 0 0 0 1010.459 455.31415 L 1013.9414 461.82391 C 963.86301 493.53198 948.68033 604.53687 938.21681 654.85126 C 936.30112 664.54064 933.88187 669.38237 930.98048 669.38837 C 927.81237 669.39615 925.02297 665.15849 922.57618 656.66962 C 914.30542 625.61477 903.13779 585.08393 892.85743 553.63055 C 888.63147 539.24965 867.99521 531.99558 852.83399 532.02118 C 837.9849 532.04729 818.26703 539.14385 813.70899 553.32196 C 802.22885 588.99907 791.81713 618.67454 777.73048 653.9743 C 774.41763 662.466 771.08888 666.70305 767.92384 666.69305 C 764.51535 666.68292 762.94033 661.83873 762.95313 652.14618 C 762.93477 592.43732 758.55521 528.86578 725.36134 468.30829 C 715.33014 450.85989 691.87837 432.77241 675.63087 442.10516 C 667.99499 446.49132 667.75016 457.73726 674.49415 468.49774 C 675.11564 469.48931 693.96845 492.44443 704.69727 537.43524 C 710.28283 560.85803 712.65061 587.00771 711.56056 621.39618 C 710.50006 654.85295 705.60913 693.76414 704.02735 737.92938 C 703.80735 747.83338 706.65965 756.04706 712.81251 762.58173 C 718.47944 769.30374 729.13533 772.59149 738.2461 772.59149 C 777.0127 772.59149 789.43405 740.05987 797.82813 722.47626 C 815.66902 684.29275 825.84532 669.48778 843.32813 630.88251 C 845.43839 625.93308 847.17931 623.45451 848.57032 623.45477 C 850.23951 623.45509 851.84484 625.83529 853.3379 630.58759 C 863.25302 670.19956 865.05619 678.5014 871.1836 705.52313 C 875.9666 726.61605 880.67951 748.67981 896.10157 765.43329 C 902.75982 772.66636 913.96803 772.55665 924.00782 772.59735 C 938.7707 772.65711 950.98888 769.03132 960.62696 762.04657 C 968.46948 756.36307 976.77758 746.43941 979.35352 736.82587 C 990.22644 696.29849 996.85792 649.76732 1002.0606 620.0036 C 1007.7281 587.57956 1013.4115 528.23545 1039.6563 509.89618 L 1042.1973 514.64813 A 13.862132 13.862132 0 0 0 1065.7344 516.11688 L 1112.2578 450.39032 A 11.2147 11.2147 0 0 0 1102.7949 432.70087 z " />
    <g
       id="path6">
      <path
         style="color:#000000;fill:#5a2ca0;stroke-linecap:round;-inkscape-stroke:none"
         d="m 1046.1055,474.40159 -19.7882,10.5851"
         id="path3" />
      <path
         style="color:#000000;fill:#5a2ca0;stroke-linecap:round;-inkscape-stroke:none"
         d="m 1048.4277,466.73437 a 8.0105,8.0105 0 0 0 -6.1015,0.60352 l -19.7871,10.58594 a 8.0105,8.0105 0 0 0 -3.2852,10.84179 8.0105,8.0105 0 0 0 10.8418,3.28516 l 19.7891,-10.58594 a 8.0105,8.0105 0 0 0 3.2832,-10.84179 8.0105,8.0105 0 0 0 -4.7403,-3.88868 z"
         id="path4" />
      <g
         id="g2" />
    </g>
    <path
       d="M 1130.9614,763.01164 V 323.75476 h 55.3685 v 390.04042 h 147.0854 l 44.8588,49.21646 z"
       id="text6"
       style="font-size:192px;font-family:Sans;-inkscape-font-specification:'Sans, ';letter-spacing:0px;fill:#2ad4ff;stroke-width:3.2042"
       aria-label="L"
       sodipodi:nodetypes="ccccccc" />
    <path
       d="m 1681.9154,403.11623 c 0,13.94467 -0.4101,27.06906 -1.2304,39.37317 -0.4101,11.89398 -1.0253,21.32713 -1.8456,28.29946 h 3.076 c 9.4332,-13.94466 22.3525,-25.63357 38.758,-35.06672 16.4055,-9.43316 37.5275,-14.14973 63.3662,-14.14973 41.0137,0 73.8246,14.35479 98.4329,43.06439 25.0183,28.29947 37.5275,70.74866 37.5275,127.34759 0,56.59892 -12.5092,99.25318 -37.5275,127.96278 -25.0184,28.7096 -57.8294,43.0644 -98.4329,43.0644 -25.8387,0 -46.9607,-4.71657 -63.3662,-14.14973 -16.4055,-9.43315 -29.3248,-20.71192 -38.758,-33.83631 h -4.3064 l -11.0737,41.83399 h -38.758 V 321.34514 h 54.1381 z m 92.8961,63.36619 c -34.8617,0 -59.0598,10.04836 -72.5943,30.14508 -13.5345,20.09672 -20.3018,51.26714 -20.3018,93.51127 v 2.46082 c 0,40.60358 6.5622,71.774 19.6866,93.51127 13.5345,21.32713 38.3478,31.9907 74.4399,31.9907 29.5299,0 51.4722,-10.86864 65.827,-32.60591 14.7649,-21.73726 22.1474,-53.11276 22.1474,-94.12647 0,-83.25784 -29.7349,-124.88676 -89.2048,-124.88676 z"
       id="text7"
       style="font-size:192px;font-family:Sans;-inkscape-font-specification:'Sans, ';letter-spacing:0px;fill:#2ad4ff;stroke-width:3.2042"
       aria-label="b"
       sodipodi:nodetypes="scccsscssssccccccssssscscss" />
  </g>
</svg>
